<?xml version="1.0" encoding="utf-8"?><!DOCTYPE svg PUBLIC "-//W3C//DTD SVG 1.1//EN" "http://www.w3.org/Graphics/SVG/1.1/DTD/svg11.dtd"><svg version="1.1" xmlns="http://www.w3.org/2000/svg" width="256" height="256" viewBox="0 0 256 256"><g transform="scale(0.25,0.25)"><g><rect fill="#FFFFFF" width="0" height="0" /></g><g transform="translate(0,0)"><g transform="scale(1,-1) translate(0,-820)"><path stroke="none" fill="#000000" d="M240 627Q248 627 265 608Q280 584 280 560Q280 504 240 446Q218 416 196 416Q184 416 169 434Q156 447 156 460Q156 469 170 485Q228 578 234 617Q234 627 240 627ZM680 692Q754 689 806 662Q852 638 852 604Q852 581 777 554Q702 532 660 532Q636 532 636 544Q636 550 697 591Q712 602 712 612Q712 621 694 625Q656 632 608 632Q531 632 403 569Q369 556 356 556Q308 557 308 575Q308 582 324 589Q521 688 680 692ZM488 472Q516 472 516 451Q516 414 454 396Q371 376 340 376Q325 376 310 383Q297 392 296 396Q296 406 314 409Q343 416 395 446Q433 472 488 472ZM120 191Q141 184 168 184Q247 184 375 289Q442 349 476 352Q508 352 508 323Q508 306 485 289Q423 227 313 83Q190 -91 160 -110Q137 -124 124 -124Q254 41 338 206Q218 124 168 124Q122 126 116 184Q116 191 120 191ZM396 172Q416 172 434 152Q456 128 456 84Q456 53 451 29Q449 9 449 -8Q449 -43 495 -59Q541 -76 689 -76Q791 -76 827 -39Q861 -15 874 72Q876 92 880 92Q893 92 920 60Q944 27 944 -6Q944 -61 897 -93Q843 -132 740 -132Q565 -132 470 -98Q400 -67 400 -17Q400 -8 404 21Q408 53 408 88Q408 113 396 126Q388 134 388 148Q388 172 396 172ZM800 367Q856 367 856 327Q855 308 833 308Q804 308 776 305V81Q776 30 764 7Q755 -17 740 -17Q703 -17 628 71V76Q664 63 692 63Q716 63 716 101V294Q682 285 650 272Q605 254 572 252Q553 252 539 260Q525 265 524 272Q524 277 532 277Q573 277 653 321Q686 339 716 349V396Q716 435 702 447Q692 452 692 460Q692 467 716 468Q741 468 759 451Q776 430 776 396V365Q788 367 800 367ZM556 212Q565 212 588 208Q623 200 640 189Q655 178 656 168Q654 134 624 132Q612 132 603 149Q588 179 561 202Q556 206 556 208V212Z" /></g></g></g></svg>