<?xml version="1.0" encoding="utf-8"?><!DOCTYPE svg PUBLIC "-//W3C//DTD SVG 1.1//EN" "http://www.w3.org/Graphics/SVG/1.1/DTD/svg11.dtd"><svg version="1.1" xmlns="http://www.w3.org/2000/svg" width="256" height="256" viewBox="0 0 256 256"><g transform="scale(0.25,0.25)"><g><rect fill="#FFFFFF" width="0" height="0" /></g><g transform="translate(0,0)"><g transform="scale(1,-1) translate(0,-820)"><path stroke="none" fill="#000000" d="M316 716Q355 716 387 694Q420 672 420 640Q420 619 404 619Q348 619 332 589Q326 574 321 570Q325 571 329 572Q379 592 452 592Q488 592 488 568Q488 541 420 527Q427 525 434 521Q449 513 449 504Q449 484 418 462Q406 453 395 446Q401 443 407 439Q437 416 439 394Q462 400 472 400Q489 400 510 391Q528 380 528 363Q528 350 516 348Q445 341 386 332Q393 327 399 321Q416 308 416 292Q416 277 397 260Q407 256 415 249Q432 233 432 216Q432 180 386 133Q339 84 324 84Q317 84 316 100Q316 119 345 157Q380 209 380 235Q380 239 378 245Q373 240 367 236Q316 204 300 204Q297 204 296 220Q297 232 329 257Q368 291 368 308Q368 316 362 328Q328 322 297 315Q250 305 220 300Q224 288 224 272Q224 227 188 127Q142 2 96 -44Q71 -68 56 -68H52Q95 -13 139 114Q180 224 180 279Q180 289 177 297Q160 300 152 313Q141 325 140 340Q140 344 153 345Q224 349 408 388Q388 393 372 408Q365 416 356 422Q281 376 248 376Q236 376 236 380Q283 418 317 447Q289 465 254 479Q240 485 240 488Q259 488 305 479Q325 474 342 469Q355 481 368 491Q390 516 402 523Q293 508 252 508Q232 508 214 518Q198 530 196 535Q196 544 221 546Q256 550 316 568V572Q336 619 336 648Q336 661 317 689Q308 704 308 707Q308 716 316 716ZM412 124Q430 124 439 117Q452 109 452 96Q452 52 413 -4Q368 -77 310 -109Q269 -128 240 -128Q232 -128 232 -124Q286 -88 341 -19Q396 59 396 115Q396 124 412 124ZM808 692Q872 691 872 648Q870 623 844 623Q798 623 755 617Q743 572 723 526Q716 510 710 497Q734 509 766 522Q785 532 796 532Q815 532 842 510Q868 489 868 468Q868 449 866 414Q864 383 864 144Q864 118 852 98Q840 84 824 84Q812 84 799 100Q788 114 788 128Q784 398 784 455Q784 476 772 476Q755 476 668 441Q640 428 632 428H631Q640 416 640 400Q640 383 640 368Q653 375 674 390Q694 407 724 407Q752 407 752 388Q752 361 722 347Q683 332 668 332Q652 332 638 340Q637 325 636 313Q635 300 635 277Q646 282 659 290Q679 304 708 304Q736 304 736 283Q736 263 708 252Q670 239 656 239Q644 239 634 243Q633 210 632 163Q651 175 672 188Q691 204 700 204Q717 204 735 195Q752 186 752 172Q752 161 745 157Q689 39 614 -24Q547 -84 484 -101Q480 -101 480 -96Q560 -33 612 42Q643 84 663 126Q618 103 582 75Q520 28 500 27Q478 28 468 43Q457 55 456 67Q456 77 466 79Q504 86 586 135Q585 142 584 151Q584 166 589 177Q590 193 595 273Q600 346 600 400Q600 418 579 432Q572 435 572 440Q572 447 588 447Q602 447 612 442Q615 448 627 458Q635 463 664 477Q672 493 680 528Q687 556 695 605Q675 600 656 593Q610 577 577 575Q554 575 538 586Q522 593 520 600Q520 605 529 605Q571 605 655 647Q745 690 808 692ZM780 40Q796 40 833 30Q890 15 918 -11Q943 -36 944 -61Q942 -98 908 -101Q886 -101 868 -68Q840 -17 790 24Q780 33 780 36V40Z" /></g></g></g></svg>