<?xml version="1.0" encoding="utf-8"?><!DOCTYPE svg PUBLIC "-//W3C//DTD SVG 1.1//EN" "http://www.w3.org/Graphics/SVG/1.1/DTD/svg11.dtd"><svg version="1.1" xmlns="http://www.w3.org/2000/svg" width="256" height="256" viewBox="0 0 256 256"><g transform="scale(0.25,0.25)"><g><rect fill="#FFFFFF" width="0" height="0" /></g><g transform="translate(0,0)"><g transform="scale(1,-1) translate(0,-820)"><path stroke="none" fill="#000000" d="M400 764Q452 764 493 738Q529 717 535 687Q588 700 612 700Q646 700 678 677Q708 652 708 636Q707 617 660 616Q631 617 603 626Q573 636 556 636Q505 636 430 618Q260 579 236 579Q212 579 212 588Q212 592 224 594Q358 639 447 664Q452 676 452 684Q452 700 413 734Q392 751 392 755Q392 764 400 764ZM356 544Q369 544 379 535Q396 521 396 499Q396 468 384 468Q375 468 358 489Q348 504 348 520Q348 544 356 544ZM528 612Q551 612 563 603Q572 593 572 572Q572 551 536 520Q545 519 549 517Q556 512 556 504Q555 481 527 470Q496 455 468 455Q464 455 461 456Q452 458 449 465Q444 475 444 491Q444 495 449 503Q472 521 492 548V552Q444 536 436 535Q407 537 404 548Q404 554 449 583Q495 612 528 612ZM200 323Q208 323 208 316Q163 235 144 151Q141 140 124 140Q111 140 94 153Q76 167 76 180Q76 190 96 219Q128 272 158 299Q184 321 200 323ZM712 460Q782 456 833 433Q876 410 876 380Q876 362 809 341Q741 323 705 323Q684 323 684 336Q684 340 733 368Q744 377 744 384Q744 393 727 398Q691 404 644 404Q543 404 374 351Q329 340 312 340Q268 341 268 356Q268 361 287 367Q522 456 712 460ZM316 304Q330 300 348 300Q401 300 487 333Q534 351 556 352Q592 352 592 319Q592 314 573 308Q522 286 433 235Q480 232 507 204Q514 195 520 184Q581 157 644 107Q730 38 812 10Q898 -19 928 -41Q948 -57 948 -68Q946 -93 892 -96Q840 -95 795 -81Q728 -58 666 -7Q613 32 543 109Q548 75 548 32Q548 -29 505 -94Q464 -152 440 -152Q434 -151 428 -132Q417 -96 395 -65Q385 -48 384 -36Q384 -28 392 -28Q412 -40 420 -40Q445 -40 471 -8Q496 20 496 63Q496 156 473 178Q454 204 384 204Q382 204 380 205Q371 198 361 194Q372 191 379 184Q392 171 392 151Q392 145 386 138Q394 140 400 140Q432 140 432 120Q432 102 406 64Q390 44 374 21Q375 22 376 23Q426 76 460 132Q464 132 464 124Q463 93 444 58Q412 -6 341 -65Q289 -108 272 -108Q260 -108 260 -84Q260 -67 284 -39Q333 22 380 103Q370 100 360 97Q354 95 349 94Q344 89 340 83Q314 51 274 15Q270 12 268 12Q256 13 256 32Q256 60 264 60Q270 56 276 56Q278 56 280 60Q307 97 324 126Q340 156 340 160Q340 166 329 172Q326 173 324 175Q314 170 309 169Q291 164 280 164Q276 164 276 168Q351 218 401 268Q366 260 348 260Q315 261 312 300Q312 304 316 304ZM632 308Q660 308 678 297Q696 281 696 256Q696 246 681 229Q644 198 556 180Q552 180 552 184Q616 236 616 292Q616 308 632 308Z" /></g></g></g></svg>